# xmcd
# 
# Track frame offsets:
#     150
#     4774
#     21140
#     44150
#     58460
#     79200
#     94835
#     118585
#     141735
#     171013
#     193688
#     215800
#     239400
#     262825
#     281175
#     297675
#     318160
#     339900
# 
# Disc length: 4618
# 
# Revision: 1
# Processed by: cddbd v1.5.2PL0 Copyright (c) Steve Scherf et al.
# Submitted via: BonkEnc v1.0
# 
DISCID=21120812
DTITLE=楠瀬誠志郎 - Seishiro Kusunose 〜Golden Best〜　Disc1
DYEAR=2004
DGENRE=JPop
TTITLE0=Always
TTITLE1=宝島−TREASURE　ISLAND−
TTITLE2=〜Prologue〜冒険者たち
TTITLE3=君の選んだ小さな傘
TTITLE4=Crying　In　The　Sun
TTITLE5=La　Maison
TTITLE6=僕がどんなに君を好きか，君は知らない
TTITLE7=まだ見えない海をさがしてる
TTITLE8=タンポポのお酒の栓あけたら
TTITLE9=季節がとうりすぎても
TTITLE10=暮れかかる街で
TTITLE11=一時間遅れの僕の天使
TTITLE12=来るなら来い
TTITLE13=ほっとけないよ（アルバム・ヴァージョン）
TTITLE14=Party’s　over
TTITLE15=とっておきの季節（とき）
TTITLE16=君と歩きたい
TTITLE17=Aquabic
EXTD=YEAR: 2004
EXTT0=
EXTT1=
EXTT2=
EXTT3=
EXTT4=
EXTT5=
EXTT6=
EXTT7=
EXTT8=
EXTT9=
EXTT10=
EXTT11=
EXTT12=
EXTT13=
EXTT14=
EXTT15=
EXTT16=
EXTT17=
PLAYORDER=
